<svg viewBox="0 0 200 200" xmlns="http://www.w3.org/2000/svg">
  <path fill="#313C52" d="M47,-76.9C61.1,-73.2,73,-61.1,80,-46.9C87.1,-32.6,89.4,-16.3,89.2,-0.1C89,16.1,86.4,32.2,78,44.2C69.6,56.2,55.6,64.1,41.6,68.4C27.7,72.7,13.8,73.4,-1,75.2C-15.9,77,-31.8,79.8,-45.7,75.5C-59.6,71.1,-71.4,59.6,-77.4,45.8C-83.4,32.1,-83.6,16,-81.3,1.3C-79.1,-13.5,-74.5,-26.9,-66.4,-37C-58.3,-47.1,-46.7,-53.9,-35,-59.1C-23.3,-64.2,-11.7,-67.8,2.4,-71.9C16.4,-76,32.8,-80.6,47,-76.9Z" transform="translate(100 100)" />
</svg>